<?xml version="1.0" encoding="UTF-8"?>
<svg width="19px" height="20px" viewBox="0 0 19 20" version="1.1" xmlns="http://www.w3.org/2000/svg" xmlns:xlink="http://www.w3.org/1999/xlink">
    <!-- Generator: Sketch 49.3 (51167) - http://www.bohemiancoding.com/sketch -->
    <title>账单信息</title>
    <desc>Created with Sketch.</desc>
    <defs></defs>
    <g id="Page-1" stroke="none" stroke-width="1" fill="none" fill-rule="evenodd">
        <g id="电子对账单邮件1" transform="translate(-20.000000, -134.000000)" fill="#ABAFB6">
            <g id="list1" transform="translate(20.000000, 134.000000)">
                <g id="Page-1">
                    <path d="M13.324,8.928 C13.614,8.928 13.849,9.163 13.849,9.453 C13.849,9.743 13.614,9.978 13.324,9.978 L10.504,9.978 L10.504,11.553 L13.324,11.553 C13.614,11.553 13.849,11.789 13.849,12.079 C13.849,12.369 13.614,12.604 13.324,12.604 L10.504,12.604 L10.504,14.374 C10.504,14.664 10.268,14.899 9.978,14.899 C9.688,14.899 9.453,14.664 9.453,14.374 L9.453,12.604 L7.021,12.604 C6.731,12.604 6.496,12.369 6.496,12.079 C6.496,11.789 6.731,11.553 7.021,11.553 L9.453,11.553 L9.453,9.978 L7.021,9.978 C6.731,9.978 6.496,9.743 6.496,9.453 C6.496,9.163 6.731,8.928 7.021,8.928 L9.259,8.928 L6.496,6.244 C6.399,6.165 6.342,6.047 6.342,5.921 C6.342,5.796 6.399,5.677 6.496,5.598 C6.701,5.395 7.032,5.395 7.237,5.598 L10.015,8.371 L12.799,5.572 C13.004,5.368 13.334,5.368 13.539,5.572 C13.637,5.66 13.693,5.786 13.693,5.919 C13.693,6.051 13.637,6.177 13.539,6.265 L10.761,8.949 L13.324,8.949 L13.324,8.928 Z M17,0 L3.345,0 C2.111,0.077 1.127,1.06 1.05,2.295 L1.05,3.44 C0.443,3.689 0.034,4.265 0,4.921 C0.034,5.576 0.443,6.153 1.05,6.402 L1.05,8.697 C0.443,8.946 0.034,9.522 0,10.178 C0.034,10.833 0.443,11.41 1.05,11.659 L1.05,13.954 C0.443,14.203 0.034,14.78 0,15.435 C0.034,16.091 0.443,16.667 1.05,16.916 L1.05,18.051 C1.05,19.212 2.19,19.952 3.35,19.952 L17,19.952 C17.515,19.99 18.022,19.802 18.387,19.437 C18.754,19.072 18.943,18.566 18.907,18.051 L18.907,2.295 C18.907,1.134 18.161,0 17,0 Z" id="账单信息"></path>
                </g>
            </g>
        </g>
    </g>
</svg>